<svg xmlns="http://www.w3.org/2000/svg" viewBox="0 0 100 100">
  <defs>
    <linearGradient id="grad" x1="0%" y1="0%" x2="100%" y2="100%">
      <stop offset="0%" style="stop-color:#3b82f6;stop-opacity:1" />
      <stop offset="100%" style="stop-color:#1e40af;stop-opacity:1" />
    </linearGradient>
  </defs>
  <rect width="100" height="100" rx="20" fill="url(#grad)"/>
  <path d="M50 30 C35 30 25 40 25 50 C25 55 27 59 30 62 L35 67 L35 75 L45 75 L45 67 L40 62 C38 60 37 55 37 50 C37 45 42 40 50 40 C58 40 63 45 63 50 C63 55 62 60 60 62 L55 67 L55 75 L65 75 L65 67 L70 62 C73 59 75 55 75 50 C75 40 65 30 50 30 Z M47 78 L47 85 L53 85 L53 78 Z" fill="white"/>
</svg>
